<?xml version="1.0" standalone="no"?>
<!DOCTYPE svg PUBLIC "-//W3C//DTD SVG 20010904//EN"
 "http://www.w3.org/TR/2001/REC-SVG-20010904/DTD/svg10.dtd">
<svg version="1.0" xmlns="http://www.w3.org/2000/svg"
 width="500.000000pt" height="500.000000pt" viewBox="0 0 500.000000 500.000000"
 preserveAspectRatio="xMidYMid meet">

<g transform="translate(0.000000,500.000000) scale(0.100000,-0.100000)"
fill="#000000" stroke="none">
<path d="M2681 3618 c-51 -51 -81 -91 -104 -140 -18 -37 -37 -66 -43 -64 -7 3
-14 -12 -18 -36 -5 -31 -1 -52 19 -96 l25 -55 25 33 c29 40 30 44 10 99 -16
48 0 46 20 -2 l13 -31 12 40 c11 35 10 44 -9 77 -28 50 -26 59 5 22 24 -29 25
-29 37 -10 15 25 55 144 56 168 1 9 6 17 11 17 16 0 11 -30 -19 -119 -26 -76
-26 -82 -7 -56 31 43 57 68 64 60 4 -3 2 -9 -4 -13 -5 -4 -25 -28 -44 -55 -19
-27 -36 -43 -40 -36 -7 11 -24 -24 -36 -75 -6 -26 -5 -27 13 -18 11 6 26 18
33 27 16 20 70 48 77 42 2 -3 -5 -10 -16 -17 -28 -15 -27 -30 3 -30 18 0 26 7
31 28 12 46 6 156 -10 201 -8 24 -15 59 -15 77 0 19 -4 34 -8 34 -5 0 -41 -32
-81 -72z"/>
<path d="M2380 3472 c0 -12 9 -22 23 -26 12 -3 38 -21 58 -41 37 -35 49 -33
49 11 0 16 -66 60 -104 70 -21 5 -26 3 -26 -14z"/>
<path d="M2380 3412 c0 -27 4 -31 45 -41 25 -6 45 -16 45 -21 0 -13 -4 -13
-47 5 -20 8 -37 14 -39 12 -5 -4 13 -78 21 -85 4 -4 27 -7 51 -7 24 0 44 -3
44 -7 0 -9 1 -9 -88 -14 -35 -2 -73 1 -84 7 l-21 11 20 -28 c19 -29 53 -111
53 -129 0 -6 -9 9 -20 33 -24 53 -65 73 -170 82 l-75 7 61 1 c34 1 81 -5 104
-13 24 -8 45 -13 48 -11 9 9 -60 87 -91 102 -47 25 -122 13 -150 -23 -39 -51
-77 -81 -110 -88 -83 -17 -96 -26 -118 -85 -25 -65 -36 -256 -17 -303 15 -40
58 -58 134 -58 76 0 92 -14 26 -23 -26 -3 -78 -16 -115 -28 l-69 -21 38 -19
c21 -10 58 -18 83 -18 l45 0 -29 30 c-23 24 -25 30 -11 30 9 0 25 -14 34 -31
11 -19 37 -40 71 -56 30 -14 63 -35 74 -46 19 -19 20 -19 30 -2 5 10 15 25 23
34 54 66 74 97 74 117 0 12 3 29 6 37 4 12 -13 15 -98 19 -78 4 -116 11 -156
28 -29 12 -51 25 -48 27 2 2 21 -3 41 -11 21 -9 40 -16 42 -16 3 0 -15 22 -39
49 -49 55 -87 149 -93 236 l-4 50 10 -50 c27 -136 50 -166 155 -200 l51 -16
82 42 c46 24 103 62 127 84 24 23 44 38 44 34 0 -17 -107 -100 -169 -131 l-65
-33 44 -6 c42 -6 43 -6 10 -7 -45 -2 -138 22 -191 48 -37 19 -39 19 -30 3 5
-10 30 -40 56 -68 l45 -49 100 -4 100 -4 51 47 c28 27 43 45 33 41 -11 -4 -44
-9 -74 -11 -59 -5 -49 -1 45 16 44 8 66 18 82 38 13 14 23 21 23 14 0 -6 -4
-15 -10 -18 -18 -11 -11 -20 28 -33 70 -25 80 -25 91 -5 7 14 7 31 -1 57 -9
27 -8 49 0 87 7 28 12 81 12 119 0 60 -5 80 -40 154 -26 54 -52 93 -73 108
-55 41 -57 42 -57 10z m-281 -165 c-20 -18 -53 -63 -73 -100 -39 -70 -52 -85
-36 -42 17 44 76 131 105 153 42 33 45 26 4 -11z m388 -119 c-2 -18 -4 -6 -4
27 0 33 2 48 4 33 2 -15 2 -42 0 -60z m-392 -56 l17 -27 -21 21 c-15 14 -23
36 -26 75 l-4 54 9 -48 c5 -27 16 -60 25 -75z m194 29 c-17 -63 -34 -96 -75
-141 l-35 -38 -60 26 c-72 31 -146 93 -165 139 -24 55 -15 60 11 6 29 -57 65
-88 147 -129 55 -27 56 -27 81 -8 43 32 94 142 98 214 l2 25 4 -24 c3 -13 -1
-45 -8 -70z m-22 61 c6 -4 -18 -7 -53 -7 -80 0 -97 -14 -63 -51 22 -24 22 -26
2 -13 -12 7 -26 23 -32 36 -9 20 -7 24 22 32 39 11 108 13 124 3z m-69 -87
c-21 -17 -38 -35 -38 -38 0 -3 12 -8 28 -10 15 -3 -8 -3 -51 -1 -46 2 -88 10
-105 19 -15 9 -18 13 -7 10 58 -20 94 -17 138 8 25 15 48 34 51 43 4 9 10 14
14 9 4 -4 -10 -22 -30 -40z m201 -74 c1 -87 -5 -74 -12 24 -3 46 -1 72 3 60 5
-11 9 -49 9 -84z m65 11 c-9 -26 -22 -51 -27 -57 -6 -7 -7 -5 -4 5 3 8 14 41
24 73 10 32 19 51 21 42 2 -8 -4 -37 -14 -63z m-528 -169 c-5 -6 -96 40 -96
49 0 4 23 -5 50 -19 28 -14 49 -28 46 -30z"/>
<path d="M2971 3164 c0 -11 3 -14 6 -6 3 7 2 16 -1 19 -3 4 -6 -2 -5 -13z"/>
<path d="M3111 3144 c0 -11 3 -14 6 -6 3 7 2 16 -1 19 -3 4 -6 -2 -5 -13z"/>
<path d="M2632 3020 c0 -14 2 -19 5 -12 2 6 2 18 0 25 -3 6 -5 1 -5 -13z"/>
<path d="M3090 2803 c0 -10 -9 -31 -20 -48 -11 -16 -20 -33 -20 -37 0 -18 38
-6 70 22 46 38 62 38 25 0 l-29 -30 31 0 c17 0 50 7 73 15 47 17 70 19 70 7 0
-19 -106 -46 -174 -44 -38 2 -73 5 -78 8 -10 6 -107 -13 -127 -25 -11 -7 -10
-13 4 -35 17 -25 17 -31 2 -94 -15 -62 -15 -71 0 -112 9 -25 17 -86 19 -138 4
-92 8 -112 23 -112 12 0 40 66 47 111 6 36 3 44 -27 76 l-34 35 32 -16 c17 -8
33 -21 36 -28 3 -7 6 13 6 45 l1 57 -40 0 c-38 0 -59 19 -22 21 59 3 126 11
143 17 17 7 12 12 -33 43 -29 19 -61 51 -72 70 -19 33 -18 33 32 -14 29 -26
67 -54 84 -62 31 -12 35 -11 70 17 21 16 38 33 38 38 0 4 -17 15 -37 23 -45
18 -80 43 -72 51 3 3 32 -8 63 -25 l58 -32 66 66 65 65 -39 7 c-49 8 -148 38
-196 59 -36 15 -38 15 -38 -1z"/>
<path d="M1761 2669 c-14 -5 -46 -13 -72 -17 l-48 -7 38 -44 38 -45 54 22 c66
26 135 39 125 24 -3 -5 -30 -16 -58 -22 -70 -17 -111 -38 -101 -53 17 -30 59
-67 75 -67 34 0 119 39 161 72 62 50 72 55 57 29 -13 -25 -121 -98 -157 -107
-24 -7 -30 -20 -12 -26 8 -3 5 -23 -10 -64 -11 -33 -21 -78 -21 -100 0 -21 -4
-54 -10 -73 -9 -33 -9 -33 13 -17 30 23 75 42 116 51 51 11 30 -10 -26 -25
-44 -13 -123 -71 -123 -92 0 -5 -11 -21 -25 -36 -25 -26 -25 -27 -5 -30 52 -8
161 85 246 209 l51 75 -89 -4 c-60 -3 -88 -1 -88 7 0 7 31 10 96 9 l96 -1 36
36 c20 20 33 40 29 44 -4 4 -51 9 -103 11 -111 5 -109 22 2 22 57 0 77 -4 98
-21 29 -23 35 -15 9 13 -9 11 -17 36 -17 58 -1 45 -12 58 -81 94 -47 25 -57
26 -210 27 -99 0 -152 4 -140 9 11 5 46 9 78 9 61 1 68 6 40 27 -21 16 -30 16
-62 3z"/>
<path d="M2852 2384 c-23 -25 -42 -48 -42 -53 0 -4 13 -20 30 -36 29 -28 30
-28 50 -10 21 19 29 8 8 -13 -9 -9 -8 -16 6 -30 16 -16 17 -13 13 63 -3 44 -9
90 -14 102 -8 21 -10 20 -51 -23z"/>
<path d="M2131 2365 c-21 -19 -68 -77 -105 -129 -74 -104 -134 -165 -185 -185
l-33 -14 68 -18 c38 -10 74 -19 81 -19 17 0 73 122 83 178 l8 47 1 -51 c1 -40
-6 -66 -32 -118 l-34 -66 27 0 c60 0 125 29 172 77 55 58 104 143 113 199 6
39 4 43 -25 64 l-31 22 20 -33 c12 -19 21 -45 21 -59 -1 -22 -2 -21 -16 10 -8
19 -27 48 -42 64 -22 24 -24 28 -7 22 17 -6 17 -4 -4 18 -14 15 -28 26 -33 26
-4 0 -25 -16 -47 -35z m54 -82 c17 -41 20 -153 4 -153 -6 0 -8 9 -4 20 8 26
-13 127 -32 157 -14 21 -14 23 1 17 9 -4 23 -22 31 -41z"/>
<path d="M2480 1763 l0 -56 -23 21 c-29 27 -87 29 -110 5 -36 -41 -25 -120 18
-137 25 -9 74 -7 96 4 13 7 19 7 19 0 0 -5 11 -10 24 -10 23 0 23 1 24 115 l1
115 -25 0 c-23 0 -24 -3 -24 -57z m-16 -65 c24 -34 20 -67 -9 -78 -54 -21
-102 30 -75 79 15 29 64 28 84 -1z"/>
<path d="M2127 1803 c-3 -5 -25 -54 -50 -110 l-46 -103 28 0 c20 0 31 7 39 25
11 23 17 25 72 25 55 0 61 -2 72 -25 8 -18 19 -25 40 -25 17 0 28 4 26 8 -1 5
-23 54 -48 110 l-45 102 -42 0 c-23 0 -44 -3 -46 -7z m71 -79 c13 -26 21 -48
19 -51 -3 -2 -25 -3 -50 -1 l-46 3 21 48 c11 26 24 47 27 47 4 0 17 -21 29
-46z"/>
<path d="M2583 1743 c-7 -2 -13 -13 -13 -24 0 -16 4 -17 26 -9 35 14 77 13 92
-2 20 -20 14 -25 -44 -31 -30 -3 -62 -11 -70 -18 -17 -14 -18 -41 -2 -57 18
-18 88 -15 110 4 16 16 18 16 24 0 3 -9 17 -16 29 -16 22 0 23 3 19 38 -12 89
-16 102 -34 112 -19 10 -115 13 -137 3z m115 -100 c-4 -20 -64 -31 -80 -15
-18 18 2 32 43 32 33 0 40 -3 37 -17z"/>
<path d="M2798 1739 c-24 -14 -23 -56 1 -69 11 -5 33 -10 50 -10 39 0 61 -9
61 -26 0 -17 -65 -19 -104 -4 -22 8 -26 7 -26 -9 0 -22 26 -31 93 -31 59 0 87
14 87 43 0 34 -19 47 -65 47 -23 0 -50 6 -61 14 -18 14 -18 15 -1 22 10 3 41
4 68 1 44 -5 50 -4 47 11 -3 14 -16 17 -68 19 -36 2 -73 -2 -82 -8z"/>
<path d="M2361 1380 c0 -36 2 -50 8 -41 8 12 12 13 25 1 9 -7 19 -11 21 -8 3
3 -1 11 -10 18 -14 12 -14 15 1 31 10 11 12 19 7 19 -6 0 -17 -7 -24 -17 -13
-15 -15 -13 -20 18 -5 28 -7 25 -8 -21z"/>
<path d="M2641 1383 c0 -29 3 -53 7 -53 4 0 6 17 4 38 -6 64 -10 69 -11 15z"/>
<path d="M2132 1373 c1 -41 2 -43 5 -13 l5 35 14 -33 c16 -39 29 -35 40 11 l8
32 7 -40 6 -40 2 48 c1 57 -11 61 -31 10 l-14 -38 -13 38 c-17 51 -31 46 -29
-10z"/>
<path d="M2509 1408 c-2 -27 3 -63 11 -71 4 -5 5 4 2 18 -2 15 0 30 6 34 6 4
5 11 -4 19 -11 10 -14 10 -15 0z"/>
<path d="M2246 1391 c-4 -5 3 -7 14 -4 11 3 20 1 20 -5 0 -5 -9 -12 -20 -15
-29 -8 -26 -37 5 -37 22 0 25 4 25 35 0 28 -4 35 -19 35 -11 0 -22 -4 -25 -9z
m34 -41 c0 -5 -7 -10 -15 -10 -8 0 -15 5 -15 10 0 6 7 10 15 10 8 0 15 -4 15
-10z"/>
<path d="M2321 1363 c2 -35 2 -35 6 -8 3 16 10 33 16 37 8 5 6 8 -5 8 -14 0
-18 -8 -17 -37z"/>
<path d="M2434 1386 c-15 -38 22 -74 49 -47 7 7 4 8 -10 5 -12 -3 -24 -1 -27
5 -5 7 3 11 19 11 20 0 26 4 23 18 -4 22 -46 29 -54 8z m46 -6 c0 -5 -9 -10
-21 -10 -11 0 -17 5 -14 10 3 6 13 10 21 10 8 0 14 -4 14 -10z"/>
<path d="M2550 1356 c0 -25 5 -46 10 -46 6 0 10 4 10 9 0 5 10 11 23 13 17 2
22 10 22 33 0 27 -4 30 -32 33 -33 3 -33 3 -33 -42z m55 9 c0 -11 -8 -21 -17
-23 -14 -3 -18 3 -18 23 0 20 4 26 18 23 9 -2 17 -12 17 -23z"/>
<path d="M2674 1389 c-4 -8 0 -9 15 -4 11 3 21 2 21 -3 0 -5 -9 -12 -21 -15
-29 -8 -19 -31 14 -35 21 -3 27 1 27 17 0 32 -11 51 -30 51 -11 0 -22 -5 -26
-11z m36 -39 c0 -5 -7 -10 -15 -10 -8 0 -15 5 -15 10 0 6 7 10 15 10 8 0 15
-4 15 -10z"/>
<path d="M2745 1381 c-3 -10 -3 -26 1 -35 7 -18 39 -22 49 -6 4 6 -1 7 -10 3
-19 -7 -36 13 -28 34 3 8 14 13 24 10 11 -3 17 -1 13 4 -10 16 -42 10 -49 -10z"/>
<path d="M2824 1386 c-15 -39 22 -74 50 -46 8 9 4 10 -16 5 -18 -5 -28 -3 -28
4 0 6 12 11 26 11 19 0 25 5 22 18 -4 22 -46 29 -54 8z m41 -6 c3 -5 -3 -10
-14 -10 -12 0 -21 5 -21 10 0 6 6 10 14 10 8 0 18 -4 21 -10z"/>
</g>
</svg>
